<mxfile host="app.diagrams.net" modified="2023-09-18T10:50:32.870Z" agent="Mozilla/5.0 (Macintosh; Intel Mac OS X 10_15_7) AppleWebKit/537.36 (KHTML, like Gecko) Chrome/115.0.0.0 Safari/537.36" etag="Mw_aXiJ7bxNNaiaZzbY_" version="21.7.5" type="github">
  <diagram name="Page-1" id="vvhchziqqjNNTEIeycxj">
    <mxGraphModel dx="1434" dy="765" grid="1" gridSize="10" guides="1" tooltips="1" connect="1" arrows="1" fold="1" page="1" pageScale="1" pageWidth="850" pageHeight="1100" math="0" shadow="0">
      <root>
        <mxCell id="0" />
        <mxCell id="1" parent="0" />
        <mxCell id="3qhl_QbXnk2u3cBf2UUI-2" value="UI Components Library" style="swimlane;whiteSpace=wrap;html=1;" vertex="1" parent="1">
          <mxGeometry x="300" y="70" width="280" height="190" as="geometry" />
        </mxCell>
        <mxCell id="3qhl_QbXnk2u3cBf2UUI-3" value="Component # 1" style="rounded=0;whiteSpace=wrap;html=1;" vertex="1" parent="3qhl_QbXnk2u3cBf2UUI-2">
          <mxGeometry x="10" y="30" width="120" height="60" as="geometry" />
        </mxCell>
        <mxCell id="3qhl_QbXnk2u3cBf2UUI-6" value="Component # 2" style="rounded=0;whiteSpace=wrap;html=1;" vertex="1" parent="3qhl_QbXnk2u3cBf2UUI-2">
          <mxGeometry x="140" y="30" width="120" height="60" as="geometry" />
        </mxCell>
        <mxCell id="3qhl_QbXnk2u3cBf2UUI-5" value="Component # N" style="rounded=0;whiteSpace=wrap;html=1;" vertex="1" parent="3qhl_QbXnk2u3cBf2UUI-2">
          <mxGeometry x="140" y="100" width="120" height="60" as="geometry" />
        </mxCell>
        <mxCell id="3qhl_QbXnk2u3cBf2UUI-8" value="" style="endArrow=none;dashed=1;html=1;dashPattern=1 3;strokeWidth=2;rounded=0;" edge="1" parent="3qhl_QbXnk2u3cBf2UUI-2">
          <mxGeometry width="50" height="50" relative="1" as="geometry">
            <mxPoint x="30" y="129.5" as="sourcePoint" />
            <mxPoint x="110" y="129.5" as="targetPoint" />
            <Array as="points">
              <mxPoint x="70" y="129.5" />
            </Array>
          </mxGeometry>
        </mxCell>
      </root>
    </mxGraphModel>
  </diagram>
</mxfile>
